<svg width="54" height="39" viewBox="0 0 54 39" fill="none" xmlns="http://www.w3.org/2000/svg">
<path d="M17.3982 31.9106H17.4007C17.4028 31.9106 17.4048 31.9102 17.4069 31.9102H46.0898C46.796 31.9102 47.4169 31.4417 47.6109 30.7628L53.939 8.61434C54.0754 8.13685 53.9798 7.62351 53.6811 7.22718C53.382 6.83085 52.9144 6.59766 52.418 6.59766H13.7497L12.6188 1.50838C12.4577 0.784523 11.8158 0.269539 11.0742 0.269539H1.58203C0.708206 0.269539 0 0.977745 0 1.85157C0 2.7254 0.708206 3.4336 1.58203 3.4336H9.8053C10.0055 4.33544 15.2172 27.7882 15.5171 29.1375C13.8358 29.8684 12.6562 31.5447 12.6562 33.4922C12.6562 36.1091 14.7854 38.2383 17.4023 38.2383H46.0898C46.9637 38.2383 47.6719 37.5301 47.6719 36.6563C47.6719 35.7824 46.9637 35.0742 46.0898 35.0742H17.4023C16.5302 35.0742 15.8203 34.3644 15.8203 33.4922C15.8203 32.6213 16.5277 31.9126 17.3982 31.9106ZM50.3205 9.76173L44.8963 28.7461H18.6713L14.4525 9.76173H50.3205Z" fill="black"/>
</svg>
